<?xml version="1.0" encoding="UTF-8" standalone="no"?>
<svg
   xmlns:dc="http://purl.org/dc/elements/1.1/"
   xmlns:cc="http://creativecommons.org/ns#"
   xmlns:rdf="http://www.w3.org/1999/02/22-rdf-syntax-ns#"
   xmlns:svg="http://www.w3.org/2000/svg"
   xmlns="http://www.w3.org/2000/svg"
   version="1.1"
   id="svg4564"
   viewBox="0 0 142.315 22.5"
   width="100">
  <defs
     id="defs4566" />
  <metadata
     id="metadata4569">
    <rdf:RDF>
      <cc:Work
         rdf:about="">
        <dc:format>image/svg+xml</dc:format>
        <dc:type
           rdf:resource="http://purl.org/dc/dcmitype/StillImage" />
        <dc:title></dc:title>
      </cc:Work>
    </rdf:RDF>
  </metadata>
  <g
     transform="translate(1151.1575,-132.54078)"
     id="layer1">
    <g
       transform="matrix(1.25,0,0,-1.25,-1025.28,154.24453)"
       id="g4514">
      <path
         id="path4516"
         style="fill:#009999;fill-opacity:1;fill-rule:nonzero;stroke:none"
         d="M 0,0 0,3.502 C 2.024,2.857 3.775,2.535 5.253,2.535 c 2.024,0 3.036,0.539 3.036,1.616 0,0.392 -0.146,0.718 -0.439,0.98 -0.344,0.31 -1.135,0.722 -2.377,1.236 -2.188,0.89 -3.6,1.605 -4.237,2.144 -1.06,0.897 -1.591,2.065 -1.591,3.501 0,1.788 0.698,3.152 2.093,4.09 1.258,0.841 2.955,1.261 5.094,1.261 1.715,0 3.368,-0.216 4.959,-0.649 l 0,-3.355 c -1.738,0.67 -3.293,1.004 -4.664,1.004 -1.821,0 -2.732,-0.518 -2.732,-1.554 0,-0.417 0.197,-0.752 0.589,-1.005 C 5.318,11.592 6.208,11.175 7.652,10.555 9.832,9.616 11.27,8.8 11.963,8.106 12.754,7.314 13.15,6.265 13.15,4.959 c 0,-2 -0.824,-3.485 -2.472,-4.457 C 9.388,-0.257 7.674,-0.637 5.534,-0.637 3.543,-0.637 1.697,-0.424 0,0 m -18.33,-0.282 0,17.351 5.681,0 5.975,-11.277 0,11.277 3.479,0 0,-17.351 -5.487,0 -6.172,11.449 0,-11.449 -3.476,0 z m -15.784,0 0,17.351 12.612,0 0,-3.171 -7.764,0 0,-3.894 6.76,0 0,-2.865 -6.76,0 0,-4.077 7.948,0 0,-3.344 -12.796,0 z m -25.47,0 0,17.351 6.331,0 4.347,-10.885 4.506,10.885 6.037,0 0,-17.351 -4.751,0 0,11.854 -5.045,-12.025 -3.025,0 -4.91,12.025 0,-11.854 -3.49,0 z m -15.82,0 0,17.351 12.625,0 0,-3.171 -7.764,0 0,-3.894 6.76,0 0,-2.865 -6.76,0 0,-4.077 7.935,0 0,-3.344 -12.796,0 z m -9.257,17.351 5.032,0 0,-17.351 -5.032,0 0,17.351 z M -100.348,0 l 0,3.502 c 2.017,-0.645 3.768,-0.967 5.254,-0.967 2.025,0 3.037,0.539 3.037,1.616 0,0.392 -0.148,0.718 -0.441,0.98 -0.335,0.31 -1.131,0.722 -2.388,1.236 -2.163,0.882 -3.571,1.596 -4.224,2.144 -1.062,0.897 -1.592,2.065 -1.592,3.501 0,1.788 0.698,3.152 2.094,4.09 1.249,0.841 2.946,1.261 5.093,1.261 1.714,0 3.369,-0.216 4.96,-0.649 l 0,-3.355 c -1.756,0.67 -3.31,1.004 -4.666,1.004 -1.82,0 -2.73,-0.518 -2.73,-1.554 0,-0.409 0.199,-0.744 0.599,-1.005 0.327,-0.212 1.213,-0.629 2.659,-1.249 2.179,-0.939 3.615,-1.755 4.309,-2.449 0.792,-0.792 1.189,-1.841 1.189,-3.147 0,-2 -0.829,-3.485 -2.487,-4.457 -1.281,-0.759 -2.992,-1.139 -5.131,-1.139 -1.992,0 -3.836,0.213 -5.535,0.637" />
    </g>
  </g>
</svg>
